# xmcd
#
# Track frame offsets: 
#        150
#        9669
#        20446
#        30849
#        42660
#        56395
#        69528
#        82852
#        95094
#        107685
#        116071
#        125849
#        138498
#        152700
#
# Disc length: 2204 seconds
#
# Revision: 0
# Processed by: cddbd v1.5.2PL0 Copyright (c) Steve Scherf et al.
# Submitted via: ExactAudioCopy v0.99pb4
#
DISCID=b7089a0e
DTITLE=Various Artist - Country Stars on LP Vol. 5
DYEAR=1983
DGENRE=Classic Country
TTITLE0=George Jones - The Race is On
TTITLE1=Johnny Cash - Train of Love
TTITLE2=Ben Colder - Hello Walls #2
TTITLE3=Jack Greene - All the Time
TTITLE4=Red Sovine - It'll Come Back
TTITLE5=Billy Walker - Cross the Brazos at Waco
TTITLE6=David Houston - Barroom Champagne
TTITLE7=Dottie West - Crazy
TTITLE8=Del Reeves - Girl on the Billboard
TTITLE9=Jimmy Wakely - Slipping Around
TTITLE10=Jean Shepard - Many Happy Hangovers to You
TTITLE11=Claude King - Wolverton Mountain
TTITLE12=Red Simpson - I'm a Truck
TTITLE13=Mike Lunsford - I've Never Cheated on You
EXTD=
EXTT0=
EXTT1=
EXTT2=
EXTT3=
EXTT4=
EXTT5=
EXTT6=
EXTT7=
EXTT8=
EXTT9=
EXTT10=
EXTT11=
EXTT12=
EXTT13=
PLAYORDER=
